<svg width="82" height="49" viewBox="0 0 82 49" fill="none" xmlns="http://www.w3.org/2000/svg">
<g clip-path="url(#clip0_554_3186)">
<path d="M80.3154 7.07434C75.9813 -2.85174 64.8421 -1.29078 56.2136 5.3833C51.0924 9.33572 47.4059 10.1562 41.4875 10.1562C36.0474 10.1562 32.8292 9.25567 26.7614 5.3833C17.4953 -0.490295 7.53174 -2.71165 2.03186 7.70472C-6.46704 23.7946 12.9619 49.01 36.3364 49H41.8462C64.324 49 88.6848 26.2661 80.3154 7.07434Z" fill="#242127"/>
<path d="M37.7693 8.00488V13.417C37.7693 17.0545 39.2449 20.0122 30.3813 20.0122C21.6959 20.0122 22.9833 17.0634 22.9833 13.4258V8.3139" fill="white"/>
<path d="M18.4029 6.02368V12.1574C18.4029 16.28 19.8875 19.632 10.9701 19.632C4.7429 19.632 3.52734 16.29 3.52734 12.1674V6.3739" fill="white"/>
<path d="M57.697 8.00488V13.417C57.697 17.0545 59.1726 20.0122 50.309 20.0122C41.6236 20.0122 42.9111 17.0634 42.9111 13.4258V8.3139" fill="white"/>
<path d="M77.8144 6.02368V12.1574C77.8144 16.28 77.2764 19.632 70.3816 19.632C61.6436 19.632 62.9388 16.29 62.9388 12.1674V6.3739" fill="white"/>
<path d="M40.9998 44.9176C35.1213 44.9176 19.0501 44.4373 20.5048 42.2559C24.1913 36.7325 31.9828 30.7089 40.9898 30.7089C49.6182 30.7089 57.1308 36.4424 60.9966 41.8957C62.7701 44.3872 46.7587 44.9176 40.9998 44.9176Z" fill="#E8584B"/>
<path d="M69.7947 6.04371C72.0962 6.04371 73.5708 6.59405 74.8362 9.47582C77.5961 15.8097 75.0255 21.9835 72.3752 26.056C65.9985 35.872 53.1555 42.9963 41.8469 42.9963H36.3271C24.3111 42.9963 14.1184 34.9614 9.34582 26.9965C5.71909 20.9428 4.98178 14.9392 7.31326 10.5165C9.25615 6.84421 11.0795 6.53402 12.9327 6.53402C16.1609 6.53402 20.7142 8.16501 24.7295 9.6059C25.8654 10.0161 26.8617 10.3764 27.7385 10.6966C34.3444 13.098 35.4005 13.3982 40.9303 13.3982H40.99C46.46 13.3982 49.4292 12.2075 53.1854 10.6966C54.5704 10.1362 56.1446 9.50583 58.1273 8.82542C62.063 7.4846 66.5167 6.04371 69.7947 6.04371ZM69.7947 0.0400391C65.7495 0.0400391 61.0766 1.47092 56.2044 3.14194C48.9509 5.64347 47.1077 7.40455 41 7.40455C40.9801 7.40455 40.9602 7.40455 40.9402 7.40455C35.5599 7.40455 35.809 7.21443 26.7521 3.96244C21.7405 2.16134 17.0576 0.540345 12.9427 0.540345C8.58859 0.540345 4.86222 2.35145 2.03257 7.70473C-6.46633 23.7946 12.9526 49 36.3271 49C36.3271 49 36.3271 49 36.3371 49H41.8469C64.3247 48.99 88.6855 26.2561 80.3062 7.06434C78.0245 1.83114 74.3081 0.0400391 69.7947 0.0400391Z" fill="#242127"/>
</g>
<defs>
<clipPath id="clip0_554_3186">
<rect width="82" height="49" fill="white"/>
</clipPath>
</defs>
</svg>
